<svg width="24" height="24" viewBox="0 0 24 24" fill="none" xmlns="http://www.w3.org/2000/svg">
<path d="M14.6717 18.1717L13.1667 19.6884V13.1667C13.1667 12.8573 13.0437 12.5605 12.825 12.3417C12.6062 12.123 12.3094 12 12 12C11.6906 12 11.3938 12.123 11.175 12.3417C10.9562 12.5605 10.8333 12.8573 10.8333 13.1667V19.6884L9.32833 18.1717C9.21955 18.0629 9.09041 17.9766 8.94829 17.9178C8.80616 17.8589 8.65383 17.8286 8.49999 17.8286C8.34616 17.8286 8.19383 17.8589 8.0517 17.9178C7.90958 17.9766 7.78044 18.0629 7.67166 18.1717C7.56288 18.2805 7.47659 18.4096 7.41772 18.5518C7.35885 18.6939 7.32855 18.8462 7.32855 19C7.32855 19.1539 7.35885 19.3062 7.41772 19.4483C7.47659 19.5905 7.56288 19.7196 7.67166 19.8284L11.1717 23.3284C11.2826 23.4346 11.4135 23.5178 11.5567 23.5734C11.6963 23.6351 11.8473 23.667 12 23.667C12.1527 23.667 12.3037 23.6351 12.4433 23.5734C12.5865 23.5178 12.7174 23.4346 12.8283 23.3284L16.3283 19.8284C16.548 19.6087 16.6714 19.3107 16.6714 19C16.6714 18.6894 16.548 18.3914 16.3283 18.1717C16.1086 17.952 15.8107 17.8286 15.5 17.8286C15.1893 17.8286 14.8913 17.952 14.6717 18.1717ZM19.49 5.25671C18.7772 3.61871 17.5469 2.25963 15.9877 1.38772C14.4286 0.515813 12.6266 0.179178 10.8578 0.429401C9.08901 0.679624 7.45107 1.5029 6.19496 2.77308C4.93884 4.04325 4.13385 5.69026 3.90333 7.46171C2.79101 7.72808 1.81525 8.39368 1.16135 9.33209C0.507457 10.2705 0.220959 11.4164 0.356268 12.5521C0.491578 13.6879 1.03927 14.7344 1.89534 15.4929C2.75141 16.2514 3.85623 16.6691 4.99999 16.6667C5.30941 16.6667 5.60616 16.5438 5.82495 16.325C6.04374 16.1062 6.16666 15.8095 6.16666 15.5C6.16666 15.1906 6.04374 14.8939 5.82495 14.6751C5.60616 14.4563 5.30941 14.3334 4.99999 14.3334C4.38116 14.3334 3.78766 14.0875 3.35008 13.65C2.91249 13.2124 2.66666 12.6189 2.66666 12C2.66666 11.3812 2.91249 10.7877 3.35008 10.3501C3.78766 9.91254 4.38116 9.66671 4.99999 9.66671C5.30941 9.66671 5.60616 9.54379 5.82495 9.325C6.04374 9.1062 6.16666 8.80946 6.16666 8.50004C6.16964 7.1202 6.66166 5.78609 7.55531 4.73472C8.44896 3.68336 9.68637 2.98282 11.0477 2.75756C12.409 2.5323 13.8061 2.79691 14.9908 3.50438C16.1755 4.21185 17.071 5.31637 17.5183 6.62171C17.585 6.82219 17.7049 7.00079 17.8652 7.13846C18.0254 7.27613 18.2201 7.36769 18.4283 7.40337C19.2054 7.55022 19.9098 7.95591 20.4269 8.55433C20.9439 9.15275 21.243 9.90862 21.2755 10.6988C21.3079 11.4889 21.0718 12.2668 20.6057 12.9056C20.1395 13.5445 19.4707 14.0066 18.7083 14.2167C18.5597 14.255 18.4201 14.3222 18.2975 14.4145C18.1748 14.5067 18.0715 14.6222 17.9935 14.7544C17.9155 14.8866 17.8643 15.0328 17.8429 15.1848C17.8214 15.3367 17.83 15.4914 17.8683 15.64C17.9066 15.7887 17.9738 15.9283 18.0661 16.0509C18.1583 16.1736 18.2739 16.2768 18.406 16.3548C18.5382 16.4328 18.6844 16.484 18.8364 16.5055C18.9883 16.527 19.143 16.5183 19.2917 16.48C20.5194 16.1556 21.6078 15.4394 22.3915 14.4401C23.1752 13.4408 23.6114 12.2131 23.6338 10.9434C23.6562 9.67362 23.2637 8.43126 22.5158 7.40491C21.7679 6.37857 20.7055 5.62432 19.49 5.25671Z" fill="white"/>
</svg>
